<svg xmlns="http://www.w3.org/2000/svg" xmlns:xlink="http://www.w3.org/1999/xlink" width="800" zoomAndPan="magnify" viewBox="0 0 600 374.999991" height="500" preserveAspectRatio="xMidYMid meet" version="1.0"><defs><g/></defs><path stroke-linecap="butt" transform="matrix(0.714876, -0.226723, 0.226723, 0.714876, 55.64666, 67.879733)" fill="none" stroke-linejoin="miter" d="M 8.756317 32.424859 L 34.606924 32.427043 C 44.787029 32.426307 52.327188 34.719317 57.235757 39.314188 C 62.167333 43.905427 64.631995 51.020146 64.631317 60.653379 C 64.632364 75.019187 59.259478 82.932227 48.51944 84.405579 C 55.164624 85.988537 60.018802 89.118136 63.07386 93.80273 C 66.148295 98.460684 67.686136 104.827929 67.687384 112.904465 C 67.685099 122.99072 65.30306 130.863283 60.52637 136.51743 C 55.754646 142.173152 48.508512 145.000489 38.781429 145.002831 L 8.751659 144.997568 Z M 33.757755 79.417904 C 40.249622 79.416787 44.74083 78.005238 47.227989 75.176718 C 49.736583 72.349532 50.993422 67.507937 50.991967 60.655324 C 50.992925 55.655852 50.22422 51.980517 48.685854 49.629319 C 47.17183 47.253055 44.887934 45.736402 41.834167 45.079359 C 38.778825 44.427281 34.234094 44.095156 28.19525 44.097879 L 24.462569 44.099796 L 24.463835 79.415554 Z M 35.015635 133.73792 C 39.649395 133.737641 43.236568 133.02294 45.770615 131.597206 C 48.327429 130.151372 50.113758 127.94754 51.131178 124.980745 C 52.147024 122.018916 52.658093 117.995397 52.65603 112.902075 C 52.65557 105.667281 51.176392 100.269418 48.208807 96.721806 C 45.25067 93.144405 40.429336 91.358496 33.757883 91.3573 L 24.462389 91.359915 L 24.464854 133.735845 Z M 35.015635 133.73792 " stroke="#d269e6" stroke-width="23.973188" stroke-opacity="1" stroke-miterlimit="4"/><path stroke-linecap="butt" transform="matrix(0.731184, -0.166795, 0.166795, 0.731184, 112.722091, 49.969773)" fill="none" stroke-linejoin="miter" d="M 37.524796 146.257947 C 26.487812 146.256488 18.582942 143.133699 13.810187 136.889579 C 9.058458 130.623545 6.685033 121.566406 6.684835 109.717005 L 6.683037 67.031134 C 6.684078 55.363656 9.092402 46.51582 13.91077 40.498942 C 18.729138 34.482064 26.600598 31.474887 37.525149 31.477411 C 48.45086 31.474856 56.295775 34.509176 61.073528 40.567452 C 65.845044 46.629649 68.228813 55.454083 68.23223 67.031758 L 68.23046 109.850374 C 68.22826 121.52293 65.819128 130.514825 61.004222 136.820981 C 56.187713 143.110743 48.359545 146.256013 37.524796 146.257947 Z M 37.5248 133.869014 C 43.358539 133.869535 47.294545 132.16567 49.330056 128.746107 C 51.369043 125.311309 52.387395 120.121115 52.385113 113.175526 L 52.387256 63.844657 C 52.385594 56.990029 51.367153 51.92287 49.331932 48.64318 C 47.296267 45.342019 43.361565 43.691178 37.522748 43.689499 C 31.598048 43.689598 27.61545 45.340095 25.580032 48.642148 C 23.544171 51.922731 22.527071 56.990336 22.528733 63.844963 L 22.52659 113.175832 C 22.528872 120.121422 23.546061 125.311169 25.583235 128.746233 C 27.618805 132.164905 31.598941 133.874191 37.5248 133.869014 Z M 29.890881 2.976028 L 45.020418 2.976151 L 57.136511 24.523764 L 45.870743 24.518197 L 37.391001 10.472701 L 29.041803 24.520406 L 17.913857 24.519566 Z M 30.024204 153.75183 L 45.024916 153.75462 L 45.021561 169.460395 L 30.024768 169.463842 Z M 30.024204 153.75183 " stroke="#d269e6" stroke-width="23.973188" stroke-opacity="1" stroke-miterlimit="4"/><path stroke-linecap="butt" transform="matrix(0.745457, -0.0821239, 0.0821239, 0.745457, 198.161742, 32.505514)" fill="none" stroke-linejoin="miter" d="M 35.285134 146.25782 C 25.853174 146.256276 18.650224 143.335288 13.675711 137.500034 C 8.721908 131.667061 5.974214 123.645733 5.426311 113.445833 L 19.30445 109.713696 C 19.777667 116.929007 21.194058 122.765284 23.548445 127.221954 C 25.921215 131.65445 29.832274 133.872179 35.28737 133.870536 C 39.379844 133.87074 42.465254 132.738187 44.548206 130.478622 C 46.62598 128.218488 47.66747 124.948138 47.666928 120.672179 C 47.6695 116.034998 46.699017 112.191913 44.750873 109.137175 C 42.807907 106.083007 39.695848 102.700923 35.419876 98.991493 L 16.524876 82.337269 C 12.722622 78.989191 9.964677 75.389354 8.244724 71.547544 C 6.54662 67.69766 5.700739 63.00893 5.698437 57.46468 C 5.701083 49.211857 8.061441 42.816996 12.793331 38.297339 C 17.517718 33.750655 23.951391 31.477825 32.094921 31.47367 C 40.986781 31.478596 47.701447 33.837504 52.24756 38.567069 C 56.796526 43.270747 59.532634 50.588629 60.461063 60.521286 L 47.127499 64.114293 C 46.652573 57.532843 45.371495 52.466044 43.29462 48.915037 C 41.209673 45.342182 37.481924 43.553372 32.095273 43.552076 C 28.117839 43.554065 25.063405 44.59571 22.937148 46.677581 C 20.81089 48.759452 19.743908 51.833111 19.745985 55.904876 C 19.743936 59.253056 20.298173 62.070392 21.409269 64.351707 C 22.516899 66.616919 24.418884 68.901521 27.110046 71.204943 L 46.14198 87.900452 C 51.050675 92.240275 54.962928 96.968131 57.87931 102.078842 C 60.797974 107.168845 62.25745 112.946986 62.257166 119.418444 C 62.259697 127.671837 59.757975 134.208327 54.762354 139.029054 C 49.762127 143.844034 43.271066 146.257265 35.285134 146.25782 Z M 35.285134 146.25782 " stroke="#d269e6" stroke-width="23.973188" stroke-opacity="1" stroke-miterlimit="4"/><path stroke-linecap="butt" transform="matrix(0.749617, -0.0229064, 0.0229064, 0.749617, 252.117003, 26.614541)" fill="none" stroke-linejoin="miter" d="M 37.797466 146.253383 C 29.923525 146.257692 23.786165 144.684026 19.374814 141.537273 C 14.984924 138.370332 11.956208 133.973502 10.278413 128.341261 C 8.606461 122.688354 7.770543 115.596705 7.770661 107.066315 L 7.769127 32.424021 L 22.797608 32.424686 L 22.799284 107.744414 C 22.799167 116.274804 23.794104 122.766837 25.784095 127.220512 C 27.774723 131.653363 31.781964 133.870633 37.795407 133.872004 C 43.814056 133.873534 47.816114 131.656091 49.806788 127.219835 C 51.79794 122.767961 52.793654 116.274226 52.793612 107.749042 L 52.792094 32.424108 L 67.685056 32.425843 L 67.68659 107.068137 C 67.686631 115.593321 66.84979 122.685964 65.176225 128.340861 C 63.503296 133.974932 60.481967 138.374483 56.117445 141.539672 C 51.774383 144.684673 45.666041 146.254121 37.797466 146.253383 Z M 57.272389 32.462006 L 58.663858 32.457626 C 61.352608 32.461623 63.275002 31.624076 64.430882 29.950191 C 65.581556 28.276148 66.161365 25.672736 66.159737 22.144845 L 77.696769 22.148251 C 77.694762 28.182519 76.102574 32.709116 72.910111 35.717314 C 69.722854 38.72567 65.065157 40.230016 58.931814 40.230192 L 57.269468 40.231505 Z M 57.272389 32.462006 " stroke="#d269e6" stroke-width="23.973188" stroke-opacity="1" stroke-miterlimit="4"/><path stroke-linecap="butt" transform="matrix(0.748871, 0.0405402, -0.0405402, 0.748871, 314.006763, 24.948393)" fill="none" stroke-linejoin="miter" d="M 37.797331 146.256356 C 29.926017 146.254743 23.784953 144.683282 19.373856 141.536772 C 14.982718 138.373533 11.953852 133.973337 10.28234 128.341667 C 8.604219 122.684275 7.771772 115.593595 7.769396 107.070474 L 7.771091 32.426744 L 22.798937 32.426934 L 22.797437 107.748758 C 22.799813 116.271879 23.792879 122.764435 25.786757 127.220659 C 27.774307 131.656362 31.780215 133.870245 37.794643 133.873273 C 43.81399 133.870818 47.814901 131.656428 49.807216 127.219139 C 51.798686 122.766246 52.793093 116.275639 52.790435 107.747317 L 52.791935 32.425493 L 67.689475 32.427521 L 67.687498 107.066051 C 67.684955 115.594654 66.848313 122.687015 65.177573 128.343132 C 63.500224 133.973527 60.483456 138.372384 56.116867 141.540267 C 51.774875 144.680738 45.668363 146.252767 37.797331 146.256356 Z M 37.797331 146.256356 " stroke="#d269e6" stroke-width="23.973188" stroke-opacity="1" stroke-miterlimit="4"/><path stroke-linecap="butt" transform="matrix(0.739871, 0.122646, -0.122646, 0.739871, 401.084395, 31.732919)" fill="none" stroke-linejoin="miter" d="M 21.139607 44.098935 L 2.069342 44.097654 L 2.071855 32.423957 L 55.301794 32.427742 L 55.303568 44.095448 L 36.814715 44.098101 L 36.809443 144.99814 L 21.139474 144.998123 Z M 21.139607 44.098935 " stroke="#d269e6" stroke-width="23.973188" stroke-opacity="1" stroke-miterlimit="4"/><path stroke-linecap="butt" transform="matrix(0.729389, 0.174478, -0.174478, 0.729389, 447.91793, 39.508148)" fill="none" stroke-linejoin="miter" d="M 26.53321 32.426399 L 41.699474 32.424147 L 65.72016 144.997407 L 50.859603 145.001509 L 45.734999 116.63818 L 22.801861 116.634635 L 17.371342 145.000417 L 2.648551 144.998341 Z M 43.632197 105.407272 L 34.197376 54.682129 L 24.871793 105.407045 Z M 26.567756 2.973546 L 41.697348 2.97471 L 53.808075 24.520239 L 42.545512 24.520543 L 34.065064 10.471918 L 25.718018 24.518517 L 14.589366 24.518921 Z M 26.70034 153.75297 L 41.69602 153.754035 L 41.699085 169.46101 L 26.703404 169.459946 Z M 26.70034 153.75297 " stroke="#d269e6" stroke-width="23.973188" stroke-opacity="1" stroke-miterlimit="4"/><path stroke-linecap="butt" transform="matrix(0.714094, 0.229173, -0.229173, 0.714094, 502.36555, 52.74081)" fill="none" stroke-linejoin="miter" d="M 8.751557 32.426969 L 36.676471 32.425282 C 46.403135 32.427211 53.47127 35.071099 57.88406 40.366865 C 62.293851 45.636242 64.496789 53.3698 64.499426 63.570907 C 64.497221 72.734228 62.132582 79.87138 57.405511 84.982364 C 52.681992 90.070328 45.812687 92.614037 36.814065 92.613677 L 24.463362 92.616934 L 24.464411 144.99939 L 8.753483 144.997936 Z M 31.689043 81.348732 C 36.327552 81.348001 39.912566 80.842953 42.445862 79.822078 C 45.002178 78.804756 46.83043 77.052862 47.940536 74.563212 C 49.049235 72.052134 49.600405 68.434482 49.603964 63.707072 C 49.604088 57.963305 49.18522 53.74344 48.348951 51.052435 C 47.534111 48.360023 45.896653 46.462225 43.428433 45.350712 C 40.961805 44.244158 37.097104 43.69022 31.824413 43.69208 L 24.461453 43.69193 L 24.462802 81.348467 Z M 31.689043 81.348732 " stroke="#d269e6" stroke-width="23.973188" stroke-opacity="1" stroke-miterlimit="4"/><g fill="#ffa5f0" fill-opacity="1"><g transform="translate(88.521546, 171.536725)"><g><path d="M -19.265625 -82.453125 L -0.78125 -88.3125 C 6.507812 -90.625 12.425781 -90.695312 16.96875 -88.53125 C 21.519531 -86.363281 24.890625 -81.84375 27.078125 -74.96875 C 30.335938 -64.695312 28.289062 -57.8125 20.9375 -54.3125 C 26.0625 -54.695312 30.242188 -53.5625 33.484375 -50.90625 C 36.734375 -48.257812 39.269531 -44.054688 41.09375 -38.296875 C 43.382812 -31.078125 43.460938 -24.90625 41.328125 -19.78125 C 39.203125 -14.65625 34.664062 -10.992188 27.71875 -8.796875 L 6.25 -1.984375 Z M 9.265625 -54.546875 C 13.898438 -56.015625 16.789062 -58.039062 17.9375 -60.625 C 19.082031 -63.21875 18.878906 -66.96875 17.328125 -71.875 C 16.191406 -75.445312 14.8125 -77.90625 13.1875 -79.25 C 11.5625 -80.59375 9.582031 -81.144531 7.25 -80.90625 C 4.914062 -80.675781 1.597656 -79.875 -2.703125 -78.5 L -5.390625 -77.65625 L 2.609375 -52.4375 Z M 22.484375 -15.984375 C 25.796875 -17.035156 28.195312 -18.363281 29.6875 -19.96875 C 31.1875 -21.570312 31.960938 -23.546875 32.015625 -25.890625 C 32.078125 -28.242188 31.53125 -31.242188 30.375 -34.890625 C 28.738281 -40.054688 26.457031 -43.578125 23.53125 -45.453125 C 20.601562 -47.328125 16.753906 -47.507812 11.984375 -46 L 5.328125 -43.890625 L 14.9375 -13.59375 Z M 22.484375 -15.984375 "/></g></g></g><g fill="#ffa5f0" fill-opacity="1"><g transform="translate(136.907328, 155.991491)"><g><path d="M 27.640625 -5.359375 C 19.578125 -3.515625 13.28125 -4.476562 8.75 -8.25 C 4.21875 -12.019531 0.960938 -18.242188 -1.015625 -26.921875 L -8.125 -58.109375 C -10.070312 -66.640625 -9.785156 -73.507812 -7.265625 -78.71875 C -4.742188 -83.925781 0.507812 -87.441406 8.5 -89.265625 C 16.488281 -91.085938 22.734375 -90.175781 27.234375 -86.53125 C 31.734375 -82.894531 34.953125 -76.84375 36.890625 -68.375 L 44.03125 -37.09375 C 45.976562 -28.550781 45.710938 -21.578125 43.234375 -16.171875 C 40.753906 -10.765625 35.554688 -7.160156 27.640625 -5.359375 Z M 25.578125 -14.40625 C 29.835938 -15.375 32.429688 -17.273438 33.359375 -20.109375 C 34.285156 -22.953125 34.164062 -26.914062 33 -32 L 24.78125 -68.0625 C 23.632812 -73.082031 22.039062 -76.625 20 -78.6875 C 17.957031 -80.75 14.804688 -81.296875 10.546875 -80.328125 C 6.210938 -79.335938 3.570312 -77.46875 2.625 -74.71875 C 1.6875 -71.976562 1.789062 -68.097656 2.9375 -63.078125 L 11.15625 -27.015625 C 12.320312 -21.929688 13.929688 -18.3125 15.984375 -16.15625 C 18.046875 -14 21.242188 -13.414062 25.578125 -14.40625 Z M -1.84375 -108.8125 L 9.234375 -111.34375 L 21.65625 -97.609375 L 13.4375 -95.71875 L 4.890625 -104.578125 L 1.140625 -92.921875 L -6.984375 -91.0625 Z M 23.40625 1.390625 L 34.375 -1.125 L 37 10.375 L 26.03125 12.890625 Z M 23.40625 1.390625 "/></g></g></g><g fill="#ffa5f0" fill-opacity="1"><g transform="translate(189.067575, 144.504022)"><g/></g></g><g fill="#ffa5f0" fill-opacity="1"><g transform="translate(210.069705, 140.59682)"><g><path d="M 26.421875 -1.953125 C 19.378906 -1.179688 13.769531 -2.765625 9.59375 -6.703125 C 5.414062 -10.648438 2.695312 -16.398438 1.4375 -23.953125 L 11.5 -27.90625 C 12.425781 -22.550781 13.957031 -18.3125 16.09375 -15.1875 C 18.226562 -12.070312 21.332031 -10.738281 25.40625 -11.1875 C 28.445312 -11.53125 30.648438 -12.628906 32.015625 -14.484375 C 33.378906 -16.347656 33.882812 -18.867188 33.53125 -22.046875 C 33.15625 -25.503906 32.113281 -28.289062 30.40625 -30.40625 C 28.707031 -32.519531 26.117188 -34.785156 22.640625 -37.203125 L 7.1875 -48.078125 C 4.070312 -50.242188 1.71875 -52.691406 0.125 -55.421875 C -1.46875 -58.148438 -2.492188 -61.585938 -2.953125 -65.734375 C -3.628906 -71.878906 -2.394531 -76.832031 0.75 -80.59375 C 3.90625 -84.363281 8.523438 -86.585938 14.609375 -87.265625 C 21.234375 -87.992188 26.429688 -86.78125 30.203125 -83.625 C 33.984375 -80.476562 36.625 -75.253906 38.125 -67.953125 L 28.46875 -64.171875 C 27.59375 -69.035156 26.226562 -72.707031 24.375 -75.1875 C 22.53125 -77.675781 19.609375 -78.703125 15.609375 -78.265625 C 12.628906 -77.929688 10.429688 -76.898438 9.015625 -75.171875 C 7.597656 -73.441406 7.054688 -71.054688 7.390625 -68.015625 C 7.660156 -65.535156 8.300781 -63.492188 9.3125 -61.890625 C 10.332031 -60.296875 11.941406 -58.742188 14.140625 -57.234375 L 29.703125 -46.34375 C 33.722656 -43.507812 37.03125 -40.3125 39.625 -36.75 C 42.21875 -33.195312 43.78125 -29.003906 44.3125 -24.171875 C 44.988281 -18.023438 43.660156 -12.945312 40.328125 -8.9375 C 36.992188 -4.9375 32.359375 -2.609375 26.421875 -1.953125 Z M 26.421875 -1.953125 "/></g></g></g><g fill="#ffa5f0" fill-opacity="1"><g transform="translate(255.438434, 135.309059)"><g><path d="M 28.359375 0.078125 C 22.453125 0.253906 17.816406 -0.785156 14.453125 -3.046875 C 11.085938 -5.316406 8.710938 -8.546875 7.328125 -12.734375 C 5.953125 -16.921875 5.164062 -22.210938 4.96875 -28.609375 L 3.265625 -84.546875 L 14.5 -84.890625 L 16.21875 -28.4375 C 16.414062 -22.039062 17.3125 -17.203125 18.90625 -13.921875 C 20.507812 -10.640625 23.566406 -9.066406 28.078125 -9.203125 C 32.597656 -9.347656 35.550781 -11.101562 36.9375 -14.46875 C 38.332031 -17.84375 38.929688 -22.726562 38.734375 -29.125 L 37.015625 -85.578125 L 48.140625 -85.921875 L 49.84375 -29.984375 C 50.039062 -23.585938 49.582031 -18.253906 48.46875 -13.984375 C 47.351562 -9.722656 45.195312 -6.359375 42 -3.890625 C 38.8125 -1.429688 34.265625 -0.109375 28.359375 0.078125 Z M 40.34375 -85.671875 L 41.390625 -85.703125 C 43.398438 -85.765625 44.816406 -86.429688 45.640625 -87.703125 C 46.472656 -88.984375 46.847656 -90.945312 46.765625 -93.59375 L 55.421875 -93.859375 C 55.554688 -89.335938 54.457031 -85.914062 52.125 -83.59375 C 49.800781 -81.269531 46.347656 -80.035156 41.765625 -79.890625 L 40.515625 -79.859375 Z M 40.34375 -85.671875 "/></g></g></g><g fill="#ffa5f0" fill-opacity="1"><g transform="translate(308.12843, 133.534652)"><g><path d="M 28.25 2.46875 C 22.351562 2.144531 17.820312 0.71875 14.65625 -1.8125 C 11.488281 -4.351562 9.394531 -7.769531 8.375 -12.0625 C 7.351562 -16.363281 7.015625 -21.707031 7.359375 -28.09375 L 10.390625 -83.984375 L 21.625 -83.375 L 18.578125 -26.96875 C 18.222656 -20.582031 18.703125 -15.679688 20.015625 -12.265625 C 21.335938 -8.859375 24.25 -7.035156 28.75 -6.796875 C 33.269531 -6.554688 36.363281 -8.054688 38.03125 -11.296875 C 39.695312 -14.546875 40.707031 -19.363281 41.0625 -25.75 L 44.109375 -82.15625 L 55.234375 -81.546875 L 52.203125 -25.65625 C 51.859375 -19.269531 50.945312 -13.992188 49.46875 -9.828125 C 48 -5.671875 45.570312 -2.5 42.1875 -0.3125 C 38.800781 1.863281 34.15625 2.789062 28.25 2.46875 Z M 28.25 2.46875 "/></g></g></g><g fill="#ffa5f0" fill-opacity="1"><g transform="translate(361.838791, 136.851518)"><g/></g></g><g fill="#ffa5f0" fill-opacity="1"><g transform="translate(383.300697, 139.014182)"><g><path d="M 28 -72.046875 L 13.921875 -74.390625 L 15.359375 -83.03125 L 54.734375 -76.5 L 53.296875 -67.859375 L 39.625 -70.125 L 27.25 4.515625 L 15.625 2.59375 Z M 28 -72.046875 "/></g></g></g><g fill="#ffa5f0" fill-opacity="1"><g transform="translate(422.618668, 145.269566)"><g><path d="M 39 -77.484375 L 50.046875 -74.828125 L 47.9375 11.46875 L 37.09375 8.875 L 38.296875 -12.71875 L 21.578125 -16.703125 L 12.671875 3.03125 L 1.9375 0.46875 Z M 38.734375 -21.28125 L 40.6875 -59.90625 L 25.046875 -24.546875 Z M 44.140625 -98.953125 L 55.1875 -96.296875 L 60.234375 -78.484375 L 52.03125 -80.4375 L 48.296875 -92.171875 L 39.765625 -83.375 L 31.671875 -85.3125 Z M 17.9375 11.03125 L 28.875 13.65625 L 26.140625 25.125 L 15.203125 22.5 Z M 17.9375 11.03125 "/></g></g></g><g fill="#ffa5f0" fill-opacity="1"><g transform="translate(469.135434, 156.284473)"><g><path d="M 32.046875 -78.390625 L 52 -71.984375 C 58.9375 -69.753906 63.367188 -66.242188 65.296875 -61.453125 C 67.234375 -56.671875 67.035156 -50.644531 64.703125 -43.375 C 62.597656 -36.820312 59.273438 -32.269531 54.734375 -29.71875 C 50.203125 -27.164062 44.726562 -26.921875 38.3125 -28.984375 L 29.484375 -31.8125 L 17.46875 5.609375 L 6.25 2 Z M 37.21875 -38.1875 C 40.519531 -37.125 43.195312 -36.664062 45.25 -36.8125 C 47.300781 -36.957031 49.007812 -37.796875 50.375 -39.328125 C 51.738281 -40.859375 52.960938 -43.304688 54.046875 -46.671875 C 55.367188 -50.773438 56.039062 -53.878906 56.0625 -55.984375 C 56.082031 -58.097656 55.34375 -59.832031 53.84375 -61.1875 C 52.351562 -62.539062 49.71875 -63.820312 45.9375 -65.03125 L 40.6875 -66.71875 L 32.0625 -39.84375 Z M 37.21875 -38.1875 "/></g></g></g><path stroke-linecap="butt" transform="matrix(0.632729, -0.402623, 0.402623, 0.632729, 0.014785, 273.258644)" fill="none" stroke-linejoin="miter" d="M 6.313909 23.784445 L 14.025439 23.783448 L 37.107086 77.729211 L 37.108098 23.784453 L 46.528996 23.78461 L 46.529484 104.999359 L 39.312108 104.999944 L 15.935608 49.557742 L 15.931838 105.000944 L 6.314397 104.999194 Z M 6.313909 23.784445 " stroke="#d269e6" stroke-width="16.920055" stroke-opacity="1" stroke-miterlimit="4"/><path stroke-linecap="butt" transform="matrix(0.663979, -0.348688, 0.348688, 0.663979, 36.762478, 250.041692)" fill="none" stroke-linejoin="miter" d="M 27.069545 105.905533 C 19.10857 105.907714 13.403533 103.652987 9.961234 99.150807 C 6.535655 94.627993 4.820656 88.091356 4.820851 79.54332 L 4.823765 48.752725 C 4.821408 40.332776 6.560747 33.95115 10.034749 29.610035 C 13.508752 25.268921 19.190096 23.098883 27.074171 23.097501 C 34.951213 23.098308 40.615675 25.284662 44.060526 29.658754 C 47.500765 34.030423 49.223854 40.394815 49.225181 48.749509 L 49.2226 79.640292 C 49.224958 88.060241 47.488143 94.549088 44.009965 99.099802 C 40.53202 103.638871 34.888364 105.905181 27.069545 105.905533 Z M 27.072782 96.97081 C 31.285062 96.970842 34.121716 95.736636 35.589546 93.277646 C 37.05784 90.795368 37.794067 87.052063 37.791426 82.038279 L 37.794326 46.452953 C 37.792715 41.504423 37.05943 37.848337 35.589859 35.482274 C 34.122942 33.099955 31.283343 31.908779 27.071063 31.908747 C 22.79814 31.912166 19.925058 33.103711 18.456431 35.485801 C 16.985845 37.849214 16.253663 41.506396 16.253084 46.447893 L 16.252374 82.040252 C 16.252825 87.047004 16.986677 90.791633 18.453928 93.274141 C 19.923833 95.740392 22.795247 96.971808 27.072782 96.97081 Z M 31.47729 23.809594 L 33.485663 23.805333 C 35.42636 23.806713 36.812923 23.205286 37.647773 21.99644 C 38.47559 20.789784 38.89743 18.911047 38.892194 16.3668 L 47.216566 16.367199 C 47.218361 20.721633 46.067603 23.98839 43.764522 26.155826 C 41.463631 28.330295 38.105763 29.41433 33.681462 29.414735 L 31.477556 29.410441 Z M 31.47729 23.809594 " stroke="#d269e6" stroke-width="16.920055" stroke-opacity="1" stroke-miterlimit="4"/><path stroke-linecap="butt" transform="matrix(0.699669, -0.270026, 0.270026, 0.699669, 93.131874, 222.03731)" fill="none" stroke-linejoin="miter" d="M 18.233576 62.48421 L 1.614296 23.783788 L 12.139209 23.781291 L 24.453068 52.473523 L 35.686658 23.785522 L 46.211571 23.783025 L 29.179643 63.38679 L 47.020277 104.998343 L 36.495364 105.000841 L 23.25514 74.426935 L 11.824931 104.998685 L 1.295159 104.999307 Z M 18.233576 62.48421 " stroke="#d269e6" stroke-width="16.920055" stroke-opacity="1" stroke-miterlimit="4"/><path stroke-linecap="butt" transform="matrix(0.713888, -0.229813, 0.229813, 0.713888, 129.449706, 208.367974)" fill="none" stroke-linejoin="miter" d="M 6.925851 23.781844 L 18.039359 23.780926 L 18.038251 104.998394 L 6.924744 104.999312 Z M 6.925851 23.781844 " stroke="#d269e6" stroke-width="16.920055" stroke-opacity="1" stroke-miterlimit="4"/><path stroke-linecap="butt" transform="matrix(0.726471, -0.186254, 0.186254, 0.726471, 149.738815, 201.588296)" fill="none" stroke-linejoin="miter" d="M 6.316581 23.785669 L 14.027678 23.783915 L 37.108955 77.734473 L 37.106636 23.780852 L 46.531986 23.783063 L 46.529974 104.997068 L 39.312803 105.001785 L 15.936011 49.561306 L 15.934487 104.997999 L 6.314568 104.999674 Z M 6.316581 23.785669 " stroke="#d269e6" stroke-width="16.920055" stroke-opacity="1" stroke-miterlimit="4"/><path stroke-linecap="butt" transform="matrix(0.739643, -0.124014, 0.124014, 0.739643, 191.949604, 190.880656)" fill="none" stroke-linejoin="miter" d="M 6.315767 23.781875 L 17.648662 23.786066 L 17.647006 58.885083 L 38.502622 58.885707 L 38.505139 23.781552 L 49.838033 23.785743 L 49.835978 105.000709 L 38.502222 105.001656 L 38.503272 67.008403 L 17.646795 67.012916 L 17.646606 105.001032 L 6.31285 105.001979 Z M 6.315767 23.781875 " stroke="#d269e6" stroke-width="16.920055" stroke-opacity="1" stroke-miterlimit="4"/><path stroke-linecap="butt" transform="matrix(0.749153, -0.0349324, 0.0349324, 0.749153, 256.074629, 181.604446)" fill="none" stroke-linejoin="miter" d="M 26.680204 105.90527 C 18.650258 105.906263 13.000029 103.515396 9.719111 98.732182 C 6.453559 93.954898 4.821822 87.350608 4.823415 78.929717 L 4.819881 50.266984 C 4.822497 41.37686 6.419986 34.625936 9.622267 30.025101 C 12.835682 25.409143 18.522641 23.098497 26.682902 23.098365 C 33.956728 23.098614 39.177945 25.073196 42.346553 29.022112 C 45.526296 32.955905 47.116865 38.765714 47.118263 46.45154 L 47.121624 52.865187 L 36.396195 52.86042 L 36.396017 47.161269 C 36.398999 43.407169 36.225704 40.526054 35.886539 38.518406 C 35.557779 36.511245 34.709404 34.912634 33.336211 33.722331 C 31.969191 32.51146 29.781245 31.908872 26.77782 31.909609 C 23.696109 31.911909 21.402869 32.561039 19.902818 33.867647 C 18.397564 35.174012 17.411335 36.979074 16.939172 39.277385 C 16.482616 41.576424 16.254776 44.673475 16.251175 48.552687 L 16.251996 80.740106 C 16.25163 84.885394 16.580124 88.128314 17.232759 90.458217 C 17.900759 92.794051 18.985557 94.466256 20.486908 95.480037 C 22.004839 96.473734 24.103742 96.973099 26.778656 96.972687 C 29.651766 96.971088 31.787705 96.340695 33.191435 95.086952 C 34.596135 93.812397 35.474909 92.075325 35.833203 89.870774 C 36.213035 87.651585 36.400331 84.641285 36.400293 80.840116 L 36.399548 74.817657 L 47.120016 74.816979 L 47.120762 80.839438 C 47.119572 88.91621 45.594626 95.11781 42.540721 99.443995 C 39.508598 103.750339 34.219863 105.907485 26.680204 105.90527 Z M 26.680204 105.90527 " stroke="#d269e6" stroke-width="16.920055" stroke-opacity="1" stroke-miterlimit="4"/><path stroke-linecap="butt" transform="matrix(0.749494, 0.0266415, -0.0266415, 0.749494, 298.478601, 179.742907)" fill="none" stroke-linejoin="miter" d="M 27.074401 105.905647 C 19.110752 105.907282 13.407115 103.655242 9.963489 99.149526 C 6.534924 94.627638 4.822568 88.095515 4.820846 79.54293 L 4.820818 48.751319 C 4.823721 40.328865 6.561858 33.950319 10.035042 29.610474 C 13.513431 25.270445 19.190113 23.098582 27.070478 23.099907 C 34.955863 23.095842 40.615638 25.2869 44.059658 29.657094 C 47.503863 34.032493 49.225914 40.397493 49.225811 48.752093 L 49.224149 79.642789 C 49.226266 88.059852 47.48681 94.547894 44.010801 99.101525 C 40.534238 103.63954 34.886912 105.904172 27.074401 105.905647 Z M 27.074788 96.972522 C 31.280624 96.968953 34.124195 95.736904 35.589884 93.27693 C 37.060039 90.79595 37.792006 87.04867 37.791175 82.040111 L 37.792512 46.448338 C 37.794086 41.507447 37.059461 37.848782 35.589006 35.482752 C 34.123201 33.100922 31.282083 31.909373 27.070856 31.907921 C 22.797166 31.90869 19.926089 33.100022 18.457624 35.481917 C 16.988604 37.848196 16.253492 41.506986 16.251918 46.447876 L 16.250581 82.03965 C 16.251411 87.048208 16.989182 90.795363 18.458502 93.276094 C 19.927268 95.741209 22.795893 96.973475 27.074788 96.972522 Z M 21.567126 0.530167 L 32.480661 0.527912 L 41.219357 18.078298 L 33.094159 18.080464 L 26.976508 5.940624 L 20.950515 18.079538 L 12.924217 18.078188 Z M 21.567126 0.530167 " stroke="#d269e6" stroke-width="16.920055" stroke-opacity="1" stroke-miterlimit="4"/><path stroke-linecap="butt" transform="matrix(0.744693, 0.0887901, -0.0887901, 0.744693, 342.73768, 181.490129)" fill="none" stroke-linejoin="miter" d="M 6.314191 23.7829 L 14.02484 23.781509 L 37.10655 77.732804 L 37.11024 23.782887 L 46.530987 23.782172 L 46.53123 104.997482 L 39.308353 104.998416 L 15.934033 49.560828 L 15.934797 104.999923 L 6.314434 104.99821 Z M 6.314191 23.7829 " stroke="#d269e6" stroke-width="16.920055" stroke-opacity="1" stroke-miterlimit="4"/><path stroke-linecap="butt" transform="matrix(0.734794, 0.150096, -0.150096, 0.734794, 385.86801, 186.778053)" fill="none" stroke-linejoin="miter" d="M 25.676718 106.004428 C 18.318909 106.002947 12.997656 103.687606 9.717017 99.052257 C 6.454707 94.402533 4.819545 87.49068 4.82278 78.319717 L 4.822655 51.149069 C 4.820373 44.865885 5.468297 39.709803 6.755178 35.677805 C 8.060388 31.63143 10.295934 28.522033 13.462859 26.354715 C 16.645094 24.18427 21.010569 23.095838 26.556265 23.100667 C 34.045823 23.0965 39.449178 25.006994 42.760185 28.828089 C 46.077229 32.626687 47.733051 38.598683 47.732754 46.743034 L 47.730799 49.752356 L 37.109334 49.753028 L 37.110341 47.259563 C 37.108701 43.373817 36.869655 40.381828 36.396222 38.272348 C 35.923832 36.16797 34.936721 34.588708 33.437909 33.523313 C 31.937011 32.447711 29.717157 31.912363 26.777304 31.912166 C 23.630088 31.911798 21.288709 32.629297 19.753167 34.064663 C 18.217625 35.500029 17.233648 37.423448 16.792071 39.842108 C 16.351428 42.239313 16.129647 45.447706 16.13079 49.461141 L 16.130609 79.545084 C 16.129547 85.759841 16.882321 90.225778 18.381743 92.933729 C 19.899493 95.627304 22.794804 96.970945 27.073823 96.968713 C 31.284414 96.969826 34.169219 95.503387 35.738442 92.567312 C 37.30152 89.627176 38.089191 84.920999 38.089164 78.440658 L 38.087521 72.811225 L 27.779653 72.811632 L 27.78258 64.810279 L 48.31864 64.809791 L 48.320079 104.999342 L 41.196193 104.997923 L 40.094574 95.675205 C 37.567048 102.560211 32.757694 106.00398 25.676718 106.004428 Z M 25.676718 106.004428 " stroke="#d269e6" stroke-width="16.920055" stroke-opacity="1" stroke-miterlimit="4"/><path stroke-linecap="butt" transform="matrix(0.712131, 0.235202, -0.235202, 0.712131, 447.057986, 200.672872)" fill="none" stroke-linejoin="miter" d="M 26.68023 105.90614 C 18.650621 105.908758 12.999431 103.513155 9.715088 98.734125 C 6.452162 93.953507 4.819934 87.350744 4.820038 78.930781 L 4.82147 50.269638 C 4.822888 41.37202 6.4243 34.628267 9.620808 30.023539 C 12.835464 25.407333 18.522664 23.095629 26.680727 23.099953 C 33.959255 23.098564 39.180069 25.071325 42.344802 29.023183 C 45.529363 32.952036 47.119299 38.762429 47.117922 46.447783 L 47.120034 52.864882 L 36.395786 52.86338 L 36.398305 47.157841 C 36.398744 43.405754 36.227127 40.527802 35.881822 38.51904 C 35.559566 36.513636 34.707477 34.913607 33.337079 33.720632 C 31.96836 32.516133 29.78268 31.910577 26.776727 31.910543 C 23.693366 31.908649 21.402105 32.561185 19.897999 33.869784 C 18.397205 35.171804 17.413861 36.977612 16.939755 39.27895 C 16.482119 41.580334 16.2529 44.672953 16.252099 48.556807 L 16.252495 80.744391 C 16.254281 84.885199 16.579717 88.12923 17.233796 90.458378 C 17.901033 92.794151 18.985167 94.465643 20.48783 95.477801 C 22.007009 96.473533 24.102393 96.971779 26.778929 96.970907 C 29.64817 96.972212 31.787836 96.342318 33.194614 95.087806 C 34.594858 93.81351 35.47425 92.074947 35.832789 89.872116 C 36.207844 87.65286 36.398948 84.644139 36.399524 80.842639 L 36.396324 74.820841 L 47.118939 74.817397 L 47.117193 80.840828 C 47.119675 88.919849 45.590586 95.118612 42.543087 99.443743 C 39.507158 103.754081 34.217346 105.90711 26.68023 105.90614 Z M 26.68023 105.90614 " stroke="#d269e6" stroke-width="16.920055" stroke-opacity="1" stroke-miterlimit="4"/><path stroke-linecap="butt" transform="matrix(0.689933, 0.294012, -0.294012, 0.689933, 487.409975, 214.091938)" fill="none" stroke-linejoin="miter" d="M 6.314874 23.786053 L 17.649465 23.785369 L 17.647904 58.883404 L 38.501273 58.885834 L 38.500792 23.783007 L 49.835383 23.782323 L 49.835638 105.000439 L 38.501047 105.001123 L 38.503757 67.009429 L 17.647638 67.013833 L 17.647678 104.998693 L 6.313088 104.999377 Z M 6.314874 23.786053 " stroke="#d269e6" stroke-width="16.920055" stroke-opacity="1" stroke-miterlimit="4"/><path stroke-linecap="butt" transform="matrix(0.662122, 0.352201, -0.352201, 0.662122, 529.722812, 232.338676)" fill="none" stroke-linejoin="miter" d="M 27.267866 105.907942 C 21.591758 105.90663 17.159287 104.771826 13.977498 102.505681 C 10.809209 100.220556 8.625088 97.046149 7.418088 92.98031 C 6.210795 88.902828 5.606383 83.784905 5.6027 77.633588 L 5.605279 23.780718 L 16.449507 23.782173 L 16.447618 78.124341 C 16.451301 84.275659 17.165876 88.957408 18.605434 92.173894 C 20.039805 95.369539 22.927578 96.972036 27.268459 96.969741 C 31.611786 96.972045 34.49571 95.373109 35.931876 92.17264 C 37.367747 88.960528 38.08614 84.27759 38.087056 78.123826 L 38.088945 23.781658 L 48.832985 23.783309 L 48.835004 77.633732 C 48.834088 83.787496 48.226748 88.901028 47.022474 92.981079 C 45.815459 97.044888 43.632968 100.217578 40.484491 102.505899 C 37.354113 104.772793 32.948572 105.906808 27.267866 105.907942 Z M 30.37692 -0.864823 L 41.097674 -0.862585 L 29.861603 18.984143 L 24.453578 18.98772 Z M 30.37692 -0.864823 " stroke="#d269e6" stroke-width="16.920055" stroke-opacity="1" stroke-miterlimit="4"/><path stroke-linecap="butt" transform="matrix(0.631597, 0.404396, -0.404396, 0.631597, 568.88517, 253.423899)" fill="none" stroke-linejoin="miter" d="M 19.14077 23.785974 L 30.07972 23.783135 L 47.41397 104.997559 L 36.690334 104.998601 L 32.995798 84.536324 L 16.450935 84.535169 L 12.532585 104.998232 L 1.910027 105.002589 Z M 31.476833 76.435897 L 24.672257 39.843674 L 17.94445 76.435558 Z M 31.476833 76.435897 " stroke="#d269e6" stroke-width="16.920055" stroke-opacity="1" stroke-miterlimit="4"/><g fill="#ffffff" fill-opacity="1"><g transform="translate(42.29018, 339.695174)"><g><path d="M -28.703125 -53.9375 L -23.8125 -57.046875 L 12.484375 -32.1875 L -9.234375 -66.328125 L -3.265625 -70.125 L 29.4375 -18.734375 L 24.859375 -15.8125 L -12.25 -41.5 L 10.078125 -6.421875 L 4 -2.546875 Z M -28.703125 -53.9375 "/></g></g></g><g fill="#ffffff" fill-opacity="1"><g transform="translate(73.374716, 319.759445)"><g><path d="M 18.28125 -8.84375 C 13.007812 -6.070312 8.441406 -5.582031 4.578125 -7.375 C 0.722656 -9.164062 -2.691406 -12.898438 -5.671875 -18.578125 L -16.40625 -39.015625 C -19.34375 -44.609375 -20.414062 -49.453125 -19.625 -53.546875 C -18.84375 -57.640625 -15.832031 -61.0625 -10.59375 -63.8125 C -5.351562 -66.5625 -0.828125 -67.082031 2.984375 -65.375 C 6.796875 -63.675781 10.160156 -60.054688 13.078125 -54.515625 L 23.84375 -34 C 26.78125 -28.414062 27.882812 -23.507812 27.15625 -19.28125 C 26.425781 -15.050781 23.46875 -11.570312 18.28125 -8.84375 Z M 15.171875 -14.765625 C 17.960938 -16.234375 19.414062 -18.039062 19.53125 -20.1875 C 19.644531 -22.34375 18.832031 -25.085938 17.09375 -28.421875 L 4.6875 -52.046875 C 2.957031 -55.328125 1.191406 -57.5 -0.609375 -58.5625 C -2.421875 -59.632812 -4.722656 -59.4375 -7.515625 -57.96875 C -10.359375 -56.476562 -11.847656 -54.6875 -11.984375 -52.59375 C -12.128906 -50.507812 -11.335938 -47.828125 -9.609375 -44.546875 L 2.796875 -20.921875 C 4.535156 -17.585938 6.320312 -15.351562 8.15625 -14.21875 C 9.988281 -13.09375 12.328125 -13.273438 15.171875 -14.765625 Z M -7.40625 -64.890625 L -6.078125 -65.578125 C -4.785156 -66.253906 -4.070312 -67.140625 -3.9375 -68.234375 C -3.8125 -69.328125 -4.1875 -70.710938 -5.0625 -72.390625 L 0.453125 -75.296875 C 1.960938 -72.421875 2.328125 -69.859375 1.546875 -67.609375 C 0.773438 -65.359375 -1.066406 -63.46875 -3.984375 -61.9375 L -5.453125 -61.171875 Z M -7.40625 -64.890625 "/></g></g></g><g fill="#ffffff" fill-opacity="1"><g transform="translate(107.604307, 302.109304)"><g/></g></g><g fill="#ffffff" fill-opacity="1"><g transform="translate(121.48463, 295.502555)"><g><path d="M 1.296875 -34.65625 L -20.796875 -57.265625 L -13.4375 -60.109375 L 2.921875 -43.359375 L 3.046875 -66.46875 L 10.40625 -69.3125 L 9.171875 -36.984375 L 32.90625 -12.703125 L 25.53125 -9.859375 L 8 -27.6875 L 8.28125 -3.203125 L 0.921875 -0.359375 Z M 1.296875 -34.65625 "/></g></g></g><g fill="#ffffff" fill-opacity="1"><g transform="translate(153.580101, 283.326264)"><g><path d="M -13.71875 -59.5625 L -5.78125 -62.109375 L 12.875 -4.140625 L 4.9375 -1.59375 Z M -13.71875 -59.5625 "/></g></g></g><g fill="#ffffff" fill-opacity="1"><g transform="translate(169.295522, 277.867759)"><g><path d="M -10.53125 -60.171875 L -4.921875 -61.609375 L 21.859375 -26.71875 L 11.8125 -65.90625 L 18.671875 -67.671875 L 33.796875 -8.671875 L 28.546875 -7.3125 L 1.25 -43.25 L 11.578125 -2.96875 L 4.59375 -1.171875 Z M -10.53125 -60.171875 "/></g></g></g><g fill="#ffffff" fill-opacity="1"><g transform="translate(204.971126, 268.54314)"><g><path d="M -5.40625 -60.84375 L 2.96875 -62.25 L 7.328125 -36.296875 L 22.765625 -38.890625 L 18.40625 -64.84375 L 26.78125 -66.25 L 36.859375 -6.1875 L 28.484375 -4.78125 L 23.765625 -32.890625 L 8.328125 -30.296875 L 13.046875 -2.1875 L 4.671875 -0.78125 Z M -5.40625 -60.84375 "/></g></g></g><g fill="#ffffff" fill-opacity="1"><g transform="translate(244.578978, 262.226953)"><g/></g></g><g fill="#ffffff" fill-opacity="1"><g transform="translate(259.742534, 260.265537)"><g><path d="M 20.015625 -0.265625 C 14.003906 0.015625 9.6875 -1.570312 7.0625 -5.03125 C 4.445312 -8.5 2.992188 -13.390625 2.703125 -19.703125 L 1.703125 -41.171875 C 1.390625 -47.828125 2.351562 -52.9375 4.59375 -56.5 C 6.832031 -60.070312 11.007812 -62.003906 17.125 -62.296875 C 22.570312 -62.546875 26.554688 -61.25 29.078125 -58.40625 C 31.597656 -55.5625 32.992188 -51.257812 33.265625 -45.5 L 33.484375 -40.6875 L 25.4375 -40.3125 L 25.25 -44.609375 C 25.113281 -47.410156 24.882812 -49.554688 24.5625 -51.046875 C 24.25 -52.535156 23.554688 -53.707031 22.484375 -54.5625 C 21.410156 -55.414062 19.753906 -55.789062 17.515625 -55.6875 C 15.203125 -55.582031 13.503906 -55.007812 12.421875 -53.96875 C 11.335938 -52.9375 10.660156 -51.550781 10.390625 -49.8125 C 10.128906 -48.070312 10.066406 -45.75 10.203125 -42.84375 L 11.328125 -18.75 C 11.472656 -15.632812 11.832031 -13.210938 12.40625 -11.484375 C 12.988281 -9.753906 13.859375 -8.539062 15.015625 -7.84375 C 16.179688 -7.15625 17.769531 -6.859375 19.78125 -6.953125 C 21.925781 -7.046875 23.503906 -7.59375 24.515625 -8.59375 C 25.523438 -9.59375 26.128906 -10.921875 26.328125 -12.578125 C 26.523438 -14.242188 26.554688 -16.507812 26.421875 -19.375 L 26.21875 -23.859375 L 34.265625 -24.234375 L 34.46875 -19.75 C 34.75 -13.675781 33.820312 -8.972656 31.6875 -5.640625 C 29.5625 -2.316406 25.671875 -0.523438 20.015625 -0.265625 Z M 20.015625 -0.265625 "/></g></g></g><g fill="#ffffff" fill-opacity="1"><g transform="translate(295.681248, 258.439766)"><g><path d="M 20.25 1.390625 C 14.300781 1.179688 10.097656 -0.65625 7.640625 -4.125 C 5.179688 -7.601562 4.0625 -12.546875 4.28125 -18.953125 L 5.109375 -42.03125 C 5.328125 -48.34375 6.796875 -53.078125 9.515625 -56.234375 C 12.242188 -59.390625 16.5625 -60.863281 22.46875 -60.65625 C 28.382812 -60.445312 32.570312 -58.65625 35.03125 -55.28125 C 37.488281 -51.914062 38.609375 -47.101562 38.390625 -40.84375 L 37.5625 -17.6875 C 37.34375 -11.382812 35.867188 -6.578125 33.140625 -3.265625 C 30.410156 0.046875 26.113281 1.597656 20.25 1.390625 Z M 20.5 -5.296875 C 23.65625 -5.179688 25.816406 -6.03125 26.984375 -7.84375 C 28.148438 -9.664062 28.800781 -12.453125 28.9375 -16.203125 L 29.890625 -42.875 C 30.015625 -46.582031 29.554688 -49.34375 28.515625 -51.15625 C 27.484375 -52.976562 25.390625 -53.945312 22.234375 -54.0625 C 19.023438 -54.175781 16.835938 -53.359375 15.671875 -51.609375 C 14.515625 -49.867188 13.875 -47.144531 13.75 -43.4375 L 12.796875 -16.765625 C 12.660156 -13.015625 13.109375 -10.191406 14.140625 -8.296875 C 15.171875 -6.410156 17.289062 -5.410156 20.5 -5.296875 Z M 18.921875 -77.71875 L 27.125 -77.4375 L 33.1875 -64.046875 L 27.109375 -64.265625 L 22.84375 -73.515625 L 18 -64.578125 L 12.015625 -64.796875 Z M 18.921875 -77.71875 "/></g></g></g><g fill="#ffffff" fill-opacity="1"><g transform="translate(333.414716, 259.682861)"><g><path d="M 11.90625 -59.921875 L 17.65625 -59.234375 L 30.03125 -17.015625 L 34.8125 -57.1875 L 41.84375 -56.359375 L 34.640625 4.125 L 29.265625 3.484375 L 16.796875 -39.859375 L 11.875 1.421875 L 4.703125 0.5625 Z M 11.90625 -59.921875 "/></g></g></g><g fill="#ffffff" fill-opacity="1"><g transform="translate(370.107886, 263.931407)"><g><path d="M 18.703125 4.59375 C 13.304688 3.488281 9.75 0.984375 8.03125 -2.921875 C 6.320312 -6.828125 6.15625 -12.144531 7.53125 -18.875 L 11.609375 -38.84375 C 12.554688 -43.457031 13.8125 -47.148438 15.375 -49.921875 C 16.945312 -52.703125 19.0625 -54.648438 21.71875 -55.765625 C 24.375 -56.878906 27.738281 -57.019531 31.8125 -56.1875 C 37.3125 -55.0625 40.992188 -52.851562 42.859375 -49.5625 C 44.722656 -46.269531 45.046875 -41.625 43.828125 -35.625 L 43.375 -33.40625 L 35.546875 -35.015625 L 35.921875 -36.875 C 36.503906 -39.71875 36.78125 -41.945312 36.75 -43.5625 C 36.71875 -45.175781 36.234375 -46.488281 35.296875 -47.5 C 34.359375 -48.507812 32.804688 -49.238281 30.640625 -49.6875 C 28.335938 -50.15625 26.507812 -49.972656 25.15625 -49.140625 C 23.8125 -48.316406 22.796875 -47.054688 22.109375 -45.359375 C 21.429688 -43.660156 20.796875 -41.335938 20.203125 -38.390625 L 15.6875 -16.28125 C 14.75 -11.71875 14.628906 -8.328125 15.328125 -6.109375 C 16.023438 -3.898438 17.945312 -2.472656 21.09375 -1.828125 C 24.1875 -1.191406 26.53125 -1.835938 28.125 -3.765625 C 29.726562 -5.691406 31.015625 -9.035156 31.984375 -13.796875 L 32.828125 -17.9375 L 25.234375 -19.484375 L 26.4375 -25.375 L 41.53125 -22.296875 L 35.5 7.25 L 30.28125 6.1875 L 30.875 -0.84375 C 27.96875 3.84375 23.910156 5.65625 18.703125 4.59375 Z M 18.703125 4.59375 "/></g></g></g><g fill="#ffffff" fill-opacity="1"><g transform="translate(407.499076, 271.857419)"><g/></g></g><g fill="#ffffff" fill-opacity="1"><g transform="translate(422.361741, 275.446644)"><g><path d="M 18.78125 6.90625 C 13.082031 5.019531 9.625 1.992188 8.40625 -2.171875 C 7.1875 -6.347656 7.566406 -11.4375 9.546875 -17.4375 L 16.296875 -37.84375 C 18.390625 -44.175781 21.117188 -48.609375 24.484375 -51.140625 C 27.859375 -53.671875 32.445312 -53.976562 38.25 -52.0625 C 43.4375 -50.34375 46.695312 -47.707031 48.03125 -44.15625 C 49.375 -40.601562 49.140625 -36.085938 47.328125 -30.609375 L 45.828125 -26.046875 L 38.1875 -28.5625 L 39.53125 -32.640625 C 40.40625 -35.296875 40.957031 -37.378906 41.1875 -38.890625 C 41.425781 -40.398438 41.195312 -41.742188 40.5 -42.921875 C 39.800781 -44.097656 38.382812 -45.039062 36.25 -45.75 C 34.050781 -46.476562 32.265625 -46.550781 30.890625 -45.96875 C 29.515625 -45.382812 28.390625 -44.328125 27.515625 -42.796875 C 26.648438 -41.265625 25.765625 -39.117188 24.859375 -36.359375 L 17.28125 -13.453125 C 16.3125 -10.492188 15.785156 -8.101562 15.703125 -6.28125 C 15.628906 -4.457031 16.007812 -3.015625 16.84375 -1.953125 C 17.675781 -0.898438 19.046875 -0.0546875 20.953125 0.578125 C 23.003906 1.253906 24.675781 1.304688 25.96875 0.734375 C 27.269531 0.160156 28.3125 -0.863281 29.09375 -2.34375 C 29.875 -3.820312 30.710938 -5.921875 31.609375 -8.640625 L 33.015625 -12.921875 L 40.65625 -10.40625 L 39.25 -6.125 C 37.34375 -0.363281 34.800781 3.691406 31.625 6.046875 C 28.445312 8.398438 24.164062 8.6875 18.78125 6.90625 Z M 18.78125 6.90625 "/></g></g></g><g fill="#ffffff" fill-opacity="1"><g transform="translate(456.538739, 286.534933)"><g><path d="M 28.234375 -54.171875 L 36.046875 -50.84375 L 25.734375 -26.640625 L 40.125 -20.515625 L 50.4375 -44.71875 L 58.25 -41.375 L 34.375 14.65625 L 26.5625 11.3125 L 37.734375 -14.90625 L 23.34375 -21.03125 L 12.171875 5.1875 L 4.359375 1.859375 Z M 28.234375 -54.171875 "/></g></g></g><g fill="#ffffff" fill-opacity="1"><g transform="translate(492.741692, 301.861465)"><g><path d="M 17.75 10.203125 C 13.988281 8.203125 11.453125 5.890625 10.140625 3.265625 C 8.835938 0.640625 8.503906 -2.234375 9.140625 -5.359375 C 9.773438 -8.484375 11.175781 -12.082031 13.34375 -16.15625 L 32.3125 -51.796875 L 39.5 -47.96875 L 20.359375 -12 C 18.191406 -7.925781 17.015625 -4.570312 16.828125 -1.9375 C 16.648438 0.6875 18.003906 2.765625 20.890625 4.296875 C 23.765625 5.828125 26.242188 5.78125 28.328125 4.15625 C 30.410156 2.539062 32.535156 -0.300781 34.703125 -4.375 L 53.84375 -40.34375 L 60.9375 -36.578125 L 41.96875 -0.9375 C 39.800781 3.132812 37.597656 6.304688 35.359375 8.578125 C 33.128906 10.859375 30.578125 12.195312 27.703125 12.59375 C 24.828125 13 21.507812 12.203125 17.75 10.203125 Z M 57.390625 -59.390625 L 64.5 -55.609375 L 50.078125 -46.421875 L 46.484375 -48.328125 Z M 57.390625 -59.390625 "/></g></g></g><g fill="#ffffff" fill-opacity="1"><g transform="translate(526.423586, 319.741583)"><g><path d="M 44.9375 -43.546875 L 51.84375 -39.125 L 29.953125 19.171875 L 23.171875 14.84375 L 29.109375 0.421875 L 18.65625 -6.28125 L 7.90625 5.0625 L 1.203125 0.765625 Z M 31.4375 -5.3125 L 41.9375 -31.1875 L 22.875 -10.796875 Z M 31.4375 -5.3125 "/></g></g></g></svg>